<?xml version="1.0" encoding="UTF-8" standalone="no"?>
<!-- Created with Inkscape (http://www.inkscape.org/) -->

<svg
   version="1.1"
   id="svg142659"
   width="371.48441"
   height="71.497894"
   xmlns:inkscape="http://www.inkscape.org/namespaces/inkscape"
   xmlns:sodipodi="http://sodipodi.sourceforge.net/DTD/sodipodi-0.dtd"
   xmlns="http://www.w3.org/2000/svg"
   xmlns:svg="http://www.w3.org/2000/svg">
  <defs
     id="defs142663" />
  <sodipodi:namedview
     id="namedview142661"
     pagecolor="#505050"
     bordercolor="#eeeeee"
     borderopacity="1"
     inkscape:pageshadow="0"
     inkscape:pageopacity="0"
     inkscape:pagecheckerboard="0" />
  <inkscape:clipboard
     min="92.718195,533.39379"
     max="464.20261,604.89168"
     geom-min="92.718195,533.39379"
     geom-max="464.20261,604.89168" />
  <g
     id="g142665"
     transform="matrix(2.0081744,0,0,2.4008696,-68.384222,-1278.6219)">
    <path
       d="m 34.05293,562.02617 v -28.66 h 9.14 q 2.64,0 4.54,0.52 1.92,0.52 3.14,1.48 1.24,0.96 1.82,2.36 0.6,1.38 0.6,3.12 0,1.06 -0.34,2.04 -0.32,0.98 -1,1.82 -0.66,0.84 -1.68,1.5 -1,0.66 -2.36,1.08 3.14,0.62 4.74,2.26 1.6,1.64 1.6,4.32 0,1.82 -0.68,3.32 -0.66,1.5 -1.96,2.58 -1.28,1.08 -3.16,1.68 -1.86,0.58 -4.26,0.58 z m 3.88,-13.06 v 9.98 h 6.2 q 1.66,0 2.84,-0.38 1.2,-0.38 1.96,-1.06 0.78,-0.7 1.14,-1.64 0.36,-0.96 0.36,-2.1 0,-2.22 -1.58,-3.5 -1.56,-1.3 -4.74,-1.3 z m 0,-2.76 h 5.12 q 1.64,0 2.84,-0.36 1.2,-0.36 1.98,-1 0.8,-0.64 1.18,-1.54 0.38,-0.92 0.38,-2 0,-2.52 -1.52,-3.7 -1.52,-1.18 -4.72,-1.18 h -5.26 z"
       style="font-size:40px;line-height:1.25;white-space:pre;shape-inside:url(#rect4308);fill:#417da9"
       id="path142449" />
    <path
       d="m 63.332905,532.56617 v 29.46 h -3.56 v -29.46 z"
       style="font-size:40px;line-height:1.25;font-family:Lato;-inkscape-font-specification:Lato;white-space:pre;shape-inside:url(#rect4308);fill:#ffffff"
       id="path142451" />
    <path
       d="m 72.692925,541.76617 v 12.92 q 0,2.3 1.06,3.56 1.06,1.26 3.2,1.26 1.56,0 2.94,-0.74 1.38,-0.74 2.54,-2.06 v -14.94 h 3.56 v 20.26 h -2.12 q -0.76,0 -0.96,-0.74 l -0.28,-2.18 q -1.32,1.46 -2.96,2.36 -1.64,0.88 -3.76,0.88 -1.66,0 -2.94,-0.54 -1.26,-0.56 -2.12,-1.56 -0.86,-1 -1.3,-2.42 -0.42,-1.42 -0.42,-3.14 v -12.92 z"
       style="font-size:40px;line-height:1.25;font-family:Lato;-inkscape-font-specification:Lato;white-space:pre;shape-inside:url(#rect4308);fill:#ffffff"
       id="path142453" />
    <path
       d="m 99.872916,541.44617 q 1.820004,0 3.360004,0.62 1.54,0.6 2.66,1.76 1.12,1.14 1.74,2.84 0.64,1.68 0.64,3.84 0,0.84 -0.18,1.12 -0.18,0.28 -0.68,0.28 H 93.932916 q 0.04,1.92 0.52,3.34 0.48,1.42 1.32,2.38 0.84,0.94 2,1.42 1.16,0.46 2.600004,0.46 1.34,0 2.3,-0.3 0.98,-0.32 1.68,-0.68 0.7,-0.36 1.16,-0.66 0.48,-0.32 0.82,-0.32 0.44,0 0.68,0.34 l 1,1.3 q -0.66,0.8 -1.58,1.4 -0.92,0.58 -1.98,0.96 -1.04,0.38 -2.16,0.56 -1.12,0.2 -2.22,0.2 -2.100004,0 -3.880004,-0.7 -1.76,-0.72 -3.06,-2.08 -1.28,-1.38 -2,-3.4 -0.72,-2.02 -0.72,-4.64 0,-2.12 0.64,-3.96 0.66,-1.84 1.88,-3.18 1.22,-1.36 2.98,-2.12 1.76,-0.78 3.96,-0.78 z m 0.08,2.62 q -2.58,0 -4.06,1.5 -1.48,1.48 -1.84,4.12 h 11.020004 q 0,-1.24 -0.34,-2.26 -0.34,-1.04 -1,-1.78 -0.66,-0.76 -1.62,-1.16 -0.94,-0.42 -2.160004,-0.42 z"
       style="font-size:40px;line-height:1.25;font-family:Lato;-inkscape-font-specification:Lato;white-space:pre;shape-inside:url(#rect4308);fill:#ffffff"
       id="path142455" />
    <path
       d="m 135.01907,551.66617 q 0.28,0.48 0.48,1.02 0.22,0.52 0.42,1.06 0.2,-0.56 0.42,-1.06 0.22,-0.52 0.5,-1.04 l 9.7,-17.62 q 0.26,-0.46 0.54,-0.56 0.28,-0.1 0.8,-0.1 h 2.86 v 28.66 h -3.4 v -21.06 q 0,-0.42 0.02,-0.9 0.02,-0.48 0.06,-0.98 l -9.82,17.92 q -0.5,0.9 -1.4,0.9 h -0.56 q -0.9,0 -1.4,-0.9 l -10.04,-17.98 q 0.06,0.52 0.08,1.02 0.04,0.5 0.04,0.92 v 21.06 h -3.4 v -28.66 h 2.86 q 0.52,0 0.8,0.1 0.28,0.1 0.54,0.56 z"
       style="font-size:40px;line-height:1.25;white-space:pre;shape-inside:url(#rect4308);fill:#417da9"
       id="path142457" />
    <path
       d="m 165.35907,541.44617 q 2.22,0 4,0.74 1.8,0.74 3.04,2.1 1.26,1.36 1.92,3.3 0.68,1.92 0.68,4.3 0,2.4 -0.68,4.32 -0.66,1.92 -1.92,3.28 -1.24,1.36 -3.04,2.1 -1.78,0.72 -4,0.72 -2.22,0 -4.02,-0.72 -1.78,-0.74 -3.04,-2.1 -1.26,-1.36 -1.94,-3.28 -0.68,-1.92 -0.68,-4.32 0,-2.38 0.68,-4.3 0.68,-1.94 1.94,-3.3 1.26,-1.36 3.04,-2.1 1.8,-0.74 4.02,-0.74 z m 0,18.08 q 3,0 4.48,-2 1.48,-2.02 1.48,-5.62 0,-3.62 -1.48,-5.64 -1.48,-2.02 -4.48,-2.02 -1.52,0 -2.64,0.52 -1.12,0.52 -1.88,1.5 -0.74,0.98 -1.12,2.42 -0.36,1.42 -0.36,3.22 0,1.8 0.36,3.22 0.38,1.42 1.12,2.4 0.76,0.96 1.88,1.48 1.12,0.52 2.64,0.52 z"
       style="font-size:40px;line-height:1.25;font-family:Lato;-inkscape-font-specification:Lato;white-space:pre;shape-inside:url(#rect4308);fill:#ffffff"
       id="path142459" />
    <path
       d="m 179.39906,562.02617 v -20.26 h 2.12 q 0.76,0 0.96,0.74 l 0.28,2.2 q 1.32,-1.46 2.94,-2.36 1.64,-0.9 3.78,-0.9 1.66,0 2.92,0.56 1.28,0.54 2.12,1.56 0.86,1 1.3,2.42 0.44,1.42 0.44,3.14 v 12.9 h -3.56 v -12.9 q 0,-2.3 -1.06,-3.56 -1.04,-1.28 -3.2,-1.28 -1.58,0 -2.96,0.76 -1.36,0.76 -2.52,2.06 v 14.92 z"
       style="font-size:40px;line-height:1.25;font-family:Lato;-inkscape-font-specification:Lato;white-space:pre;shape-inside:url(#rect4308);fill:#ffffff"
       id="path142461" />
    <path
       d="m 205.33906,532.56617 v 17.34 h 0.92 q 0.4,0 0.66,-0.1 0.26,-0.12 0.58,-0.46 l 6.4,-6.86 q 0.3,-0.32 0.6,-0.52 0.3,-0.2 0.8,-0.2 h 3.24 l -7.46,7.94 q -0.28,0.34 -0.56,0.6 -0.26,0.26 -0.6,0.46 0.36,0.24 0.64,0.56 0.3,0.3 0.56,0.7 l 7.92,10 h -3.2 q -0.44,0 -0.76,-0.16 -0.3,-0.18 -0.58,-0.54 l -6.66,-8.3 q -0.3,-0.42 -0.6,-0.54 -0.3,-0.14 -0.9,-0.14 h -1 v 9.68 h -3.58 v -29.46 z"
       style="font-size:40px;line-height:1.25;font-family:Lato;-inkscape-font-specification:Lato;white-space:pre;shape-inside:url(#rect4308);fill:#ffffff"
       id="path142463" />
  </g>
</svg>
